<svg fill="#7e0606" id="Capa_1" enable-background="new 0 0 512 512" height="512" viewBox="0 0 512 512" width="512" xmlns="http://www.w3.org/2000/svg"><g><g><path d="m387.75 158.05v-111.99h23.56c4.143 0 7.5-3.358 7.5-7.5v-31.06c0-4.142-3.357-7.5-7.5-7.5h-107.9c-4.143 0-7.5 3.358-7.5 7.5s3.357 7.5 7.5 7.5h100.4v16.06h-295.62v-16.06h162.53c4.143 0 7.5-3.358 7.5-7.5s-3.357-7.5-7.5-7.5h-170.03c-4.143 0-7.5 3.358-7.5 7.5v31.06c0 4.142 3.357 7.5 7.5 7.5h23.56v111.96c0 46.885 33.12 85.234 77.079 97.98-44.073 12.895-77.079 50.953-77.079 97.98v111.96h-23.56c-4.143 0-7.5 3.358-7.5 7.5v31.06c0 4.142 3.357 7.5 7.5 7.5h76.84c4.143 0 7.5-3.358 7.5-7.5s-3.357-7.5-7.5-7.5h-69.34v-16.06h295.62v16.06h-193.59c-4.143 0-7.5 3.358-7.5 7.5s3.357 7.5 7.5 7.5h201.09c4.143 0 7.5-3.358 7.5-7.5v-31.06c0-4.142-3.357-7.5-7.5-7.5h-23.56v-69.36c0-4.142-3.357-7.5-7.5-7.5s-7.5 3.358-7.5 7.5v69.36h-233.5v-111.96c0-52.995 42.709-77.534 87.343-90.585 8.01-1.6 7.515-12.285.718-14.55-44.898-12.923-88.061-37.466-88.061-90.824v-111.961h233.5v111.99c0 53.391-43.218 77.699-88.063 90.835-8.354 2.782-7.688 11.615 0 14.23 49.891 14.882 90.973 42.237 88.063 100.775 0 4.142 3.357 7.5 7.5 7.5s7.5-3.358 7.5-7.5c2.635-50.884-28.25-93.701-76.974-107.89 44.029-12.904 76.974-50.976 76.974-97.95z"/><path d="m271.531 232.438c5.719 0 27.208-10.306 37.611-14.468 28.882-11.552 47.544-39.116 47.544-70.223v-78.121c0-4.142-3.357-7.5-7.5-7.5h-186.373c-4.143 0-7.5 3.358-7.5 7.5v78.103c0 31.119 18.672 58.687 47.568 70.233 10.941 4.372 33.021 14.017 37.67 14.476zm-101.218-155.312h171.373v47.125h-171.373zm38.135 126.908c-26.28-10.501-39.697-37.501-38.135-64.783h171.373c2.168 27.281-11.995 54.344-38.114 64.792l-33.485 13.395h-28.092z"/><path d="m155.313 364.271v78.103c0 4.142 3.357 7.5 7.5 7.5h186.373c4.143 0 7.5-3.358 7.5-7.5v-78.121c0-31.106-18.662-58.67-47.544-70.223-10.922-4.369-32.309-14.468-37.611-14.468h-30.979c-5.885 0-27.249 10.311-37.67 14.476-28.897 11.546-47.569 39.114-47.569 70.233zm186.374 70.603h-171.374v-49.219l85.687-28.563 85.687 28.563zm-99.692-140.312h28.092l33.485 13.395c25.145 10.059 38.996 35.559 38.114 61.887l-83.314-27.772c-1.541-.513-3.203-.513-4.744 0l-83.314 27.772c-1.008-26.45 12.779-51.745 38.135-61.877z"/></g><g><path d="m225.02 170.313c-4.142 0-7.5-3.358-7.5-7.5 0-4.142 3.358-7.5 7.5-7.5 4.142 0 7.5 3.358 7.5 7.5 0 4.142-3.357 7.5-7.5 7.5z"/><path d="m225.02 418.901c-4.142 0-7.5-3.358-7.5-7.5 0-4.142 3.358-7.5 7.5-7.5 4.142 0 7.5 3.358 7.5 7.5 0 4.142-3.357 7.5-7.5 7.5z"/><path d="m287.062 418.901c-4.142 0-7.5-3.358-7.5-7.5 0-4.142 3.358-7.5 7.5-7.5 4.142 0 7.5 3.358 7.5 7.5 0 4.142-3.358 7.5-7.5 7.5z"/><path d="m256 418.901c-4.142 0-7.5-3.358-7.5-7.5 0-4.142 3.358-7.5 7.5-7.5 4.142 0 7.5 3.358 7.5 7.5 0 4.142-3.358 7.5-7.5 7.5z"/><path d="m256 387.733c-4.142 0-7.5-3.358-7.5-7.5 0-4.142 3.358-7.5 7.5-7.5 4.142 0 7.5 3.358 7.5 7.5 0 4.142-3.358 7.5-7.5 7.5z"/><path d="m318.125 418.901c-4.142 0-7.5-3.358-7.5-7.5 0-4.142 3.358-7.5 7.5-7.5 4.142 0 7.5 3.358 7.5 7.5 0 4.142-3.358 7.5-7.5 7.5z"/><path d="m287.062 170.313c-4.142 0-7.5-3.358-7.5-7.5 0-4.142 3.358-7.5 7.5-7.5 4.142 0 7.5 3.358 7.5 7.5 0 4.142-3.358 7.5-7.5 7.5z"/><path d="m256 201.375c-4.142 0-7.5-3.358-7.5-7.5 0-4.142 3.358-7.5 7.5-7.5 4.142 0 7.5 3.358 7.5 7.5 0 4.143-3.358 7.5-7.5 7.5z"/><path d="m193.875 418.901c-4.142 0-7.5-3.358-7.5-7.5 0-4.142 3.358-7.5 7.5-7.5 4.142 0 7.5 3.358 7.5 7.5 0 4.142-3.357 7.5-7.5 7.5z"/><path d="m256 325.625c-4.142 0-7.5-3.358-7.5-7.5 0-4.142 3.358-7.5 7.5-7.5 4.142 0 7.5 3.358 7.5 7.5 0 4.142-3.358 7.5-7.5 7.5z"/></g></g></svg>